<svg xmlns="http://www.w3.org/2000/svg" width="512.000000pt" height="512.000000pt" viewBox="0 0 512.000000 512.000000" preserveAspectRatio="xMidYMid meet"><g transform="translate(0.000000,512.000000) scale(0.100000,-0.100000)" fill="#000000" stroke="none"><path d="M572 5103 c-11 -10 -145 -254 -296 -543 l-276 -525 0 -1993 0 -1993 25 -24 24 -25 2511 0 2511 0 24 25 25 24 0 1993 0 1993 -276 525 c-151 289 -285 533 -296 543 -18 15 -51 17 -363 17 -381 0 -378 0 -391 -67 -5 -26 -1 -37 19 -57 l26 -26 309 0 309 0 230 -437 230 -438 -905 -3 c-498 -1 -906 -1 -908 1 -4 4 -174 847 -174 863 0 12 53 14 333 14 l334 0 21 23 c31 33 29 80 -4 106 l-27 21 -1497 0 c-1412 0 -1499 -1 -1518 -17z m1618 -147 c0 -8 -38 -203 -85 -434 -47 -231 -85 -423 -85 -426 0 -3 -222 -6 -494 -6 -272 0 -502 -3 -511 -6 -24 -10 -46 -60 -39 -89 14 -56 7 -55 536 -55 l488 0 0 -355 0 -356 25 -24 c43 -44 68 -35 294 95 115 66 216 122 224 126 9 3 105 -44 242 -120 243 -136 268 -144 310 -101 l25 24 0 356 0 355 925 0 925 0 0 -1895 0 -1895 -2410 0 -2410 0 0 1895 0 1895 315 0 316 0 26 26 c20 20 24 31 19 57 -13 62 -8 62 -330 67 l-294 5 231 438 230 437 764 0 c650 0 763 -2 763 -14z m589 -38 c6 -29 46 -227 90 -440 l79 -388 -384 0 c-370 0 -384 1 -384 19 0 10 38 206 85 436 47 229 85 418 85 421 0 2 94 4 209 4 l210 0 10 -52z m181 -1253 c0 -151 -2 -275 -3 -275 -2 0 -89 47 -193 105 -104 58 -199 105 -212 105 -13 0 -96 -42 -185 -93 -89 -52 -172 -99 -184 -106 l-23 -12 0 276 0 275 400 0 400 0 0 -275z"></path><path d="M2275 2830 c-23 -9 -467 -779 -473 -821 -2 -15 1 -36 7 -47 6 -12 103 -73 216 -138 212 -121 231 -127 269 -89 8 8 65 104 127 212 132 233 134 236 149 201 10 -22 8 -28 -19 -56 -37 -36 -40 -71 -8 -106 19 -21 52 -31 235 -70 238 -51 264 -54 290 -28 21 21 162 425 162 464 0 40 -31 71 -71 71 -19 0 -43 -3 -54 -7 -18 -6 -33 17 -125 181 -58 104 -117 200 -132 216 l-26 27 -264 -1 c-145 0 -272 -4 -283 -9z m600 -362 c66 -116 128 -219 137 -228 17 -15 16 -21 -14 -111 l-31 -95 -98 20 c-89 19 -98 23 -103 46 -3 14 -75 148 -161 298 -85 150 -155 275 -155 277 0 3 69 5 153 5 l152 0 120 -212z m-486 -4 c39 -69 71 -128 71 -130 0 -3 -240 -426 -246 -433 -5 -6 -224 123 -224 132 0 15 312 557 321 557 4 0 39 -57 78 -126z"></path><path d="M3305 1942 c-34 -7 -404 -232 -415 -252 -5 -10 -10 -28 -10 -40 0 -18 91 -181 231 -412 l29 -48 -35 0 c-32 0 -35 2 -35 30 0 37 -39 80 -72 80 -13 0 -33 -7 -45 -15 -19 -13 -193 -203 -291 -318 -56 -66 -52 -73 128 -277 156 -175 162 -180 200 -180 30 0 43 6 59 26 12 15 21 37 21 50 l0 24 239 0 c235 0 240 0 264 23 39 36 267 445 267 479 0 18 -27 75 -72 151 -104 178 -111 187 -158 187 -30 0 -43 -6 -59 -26 -30 -38 -27 -55 24 -143 25 -43 45 -81 45 -84 0 -4 -67 -7 -149 -7 l-149 0 -121 204 c-66 112 -123 210 -126 219 -5 10 25 33 106 81 l113 66 44 -78 c58 -100 78 -122 114 -122 41 0 64 15 76 48 12 35 3 57 -74 189 -81 138 -99 155 -149 145z m323 -907 c2 -2 -29 -62 -70 -134 l-73 -130 -247 -1 c-136 0 -258 -4 -271 -9 -23 -9 -31 -3 -92 65 l-67 75 65 72 64 72 344 -3 c189 -1 345 -5 347 -7z"></path><path d="M1711 1744 c-117 -24 -220 -49 -228 -56 -40 -33 -34 -101 11 -128 l24 -15 -119 -200 c-79 -134 -118 -210 -119 -230 0 -42 247 -475 281 -492 33 -18 910 -18 942 -1 45 24 46 31 47 281 l0 238 -25 24 -24 25 -261 0 -260 0 17 28 c9 15 18 28 18 30 1 1 15 -5 32 -13 22 -11 38 -13 56 -6 28 11 57 47 57 71 0 8 -31 114 -70 235 -73 231 -86 256 -139 254 -14 -1 -122 -21 -240 -45z m220 -219 c27 -88 28 -90 9 -110 -10 -11 -89 -139 -175 -285 -86 -146 -160 -269 -164 -273 -5 -5 -43 51 -84 124 -68 119 -74 134 -62 153 72 116 244 415 246 431 3 16 20 23 84 36 119 25 114 28 146 -76z m459 -625 l0 -130 -326 0 c-196 0 -324 4 -322 9 2 5 35 64 73 130 l70 121 253 0 252 0 0 -130z"></path></g></svg>